<svg xmlns="http://www.w3.org/2000/svg" fill="#cbd5e1" viewBox="0 0 100 100" width="100%"><path fill="currentColor" d="m64.815 46.12-.833 6.69a2.232 2.232 0 0 1-2.21 1.958H50.938v27.967a38.583 38.583 0 0 1-11.11-.604V54.768h-8.333c-.765 0-1.39-.627-1.39-1.394v-8.37c0-.768.625-1.395 1.39-1.395h8.332V31.056c0-7.703 6.219-13.947 13.892-13.947h9.721c.766 0 1.39.627 1.39 1.395v8.37c0 .767-.624 1.394-1.39 1.394h-6.945c-3.068 0-5.554 2.497-5.554 5.58v9.764h11.666a2.233 2.233 0 0 1 2.21 2.511l-.002-.002Z"></path></svg>