<svg xmlns="http://www.w3.org/2000/svg" width="100%" viewBox="0 0 101 100" fill="#cbd5e1"><path d="M75.869 0.0117188H24.1577C10.833 0.0117188 0.0263672 10.8183 0.0263672 24.143V75.8544C0.0263672 89.1792 10.833 99.9857 24.1577 99.9857H75.869C89.1938 99.9857 100 89.1792 100 75.8544V24.143C100 10.8183 89.1938 0.0117188 75.869 0.0117188ZM91.3811 74.1276C91.3811 83.6439 83.6586 91.3664 74.1423 91.3664H25.8797C16.3633 91.3664 8.64097 83.6439 8.64097 74.1276V25.865C8.64097 16.3487 16.3633 8.62628 25.8797 8.62628H74.1423C83.6586 8.62628 91.3811 16.3487 91.3811 25.865V74.1276Z" fill="currentColor"></path><path d="M50.0633 24.1406C35.7936 24.1406 24.21 35.7242 24.21 49.9939C24.21 64.2636 35.7936 75.8472 50.0633 75.8472C64.3329 75.8472 75.9165 64.2636 75.9165 49.9939C75.9165 35.7242 64.3329 24.1406 50.0633 24.1406ZM50.0633 67.2326C40.5661 67.2326 32.8245 59.491 32.8245 49.9939C32.8245 40.4968 40.5661 32.7552 50.0633 32.7552C59.5604 32.7552 67.3019 40.4968 67.3019 49.9939C67.3019 59.491 59.5604 67.2326 50.0633 67.2326Z" fill="currentColor"></path><path d="M77.6433 27.5874C80.499 27.5874 82.8139 25.2724 82.8139 22.4167C82.8139 19.5611 80.499 17.2461 77.6433 17.2461C74.7877 17.2461 72.4727 19.5611 72.4727 22.4167C72.4727 25.2724 74.7877 27.5874 77.6433 27.5874Z" fill="currentColor"></path></svg>