<svg width="131" height="51" viewBox="0 0 131 51" fill="none" xmlns="http://www.w3.org/2000/svg">
<path d="M130.695 50.504H117.737C119.482 49.508 119.98 47.182 119.98 45.687V22.677H109.264V45.687C109.264 47.182 109.929 49.507 111.59 50.504H98.549C100.293 49.591 101.041 47.099 101.041 45.687V12.21C101.041 6.229 102.868 4.318 105.693 2.159L103.948 0H125.296L123.469 2.16C126.293 4.32 128.204 7.31 128.204 11.962V45.687C128.204 47.182 128.951 49.507 130.695 50.504ZM119.98 15.95V11.88C119.98 8.474 118.236 6.148 114.581 6.148C110.677 6.148 109.181 9.055 109.181 11.88V15.95H119.98ZM97.936 50.504H83.981L73.93 11.131V45.687C73.93 47.265 74.511 49.507 76.256 50.504H65.125C66.786 49.757 67.451 46.932 67.451 45.687V4.817C67.451 3.323 66.786 0.997 65.125 0H79.495L89.048 37.961V4.818C89.048 3.323 88.467 0.831 86.722 0H98.02C96.359 0.83 95.528 3.323 95.528 4.818V45.687C95.528 47.182 96.11 49.507 97.938 50.504H97.936ZM61.993 50.504H40.147C41.807 49.508 42.555 47.182 42.555 45.687V4.817C42.555 3.323 41.808 0.831 40.147 0H62.99L60.664 7.559C59.999 7.061 58.836 6.23 56.843 6.23H50.779V16.032H62.409L59.75 24.006C59.5 23.757 58.172 22.677 55.763 22.677H50.779V43.444H59.501C60.581 43.444 62.824 43.361 64.07 42.364L61.993 50.504ZM38.417 50.504H25.46C27.121 49.508 27.786 47.182 27.786 45.687V4.817C27.786 3.323 27.121 0.831 25.46 0H38.418C36.757 0.83 36.093 3.323 36.093 4.818V45.687C36.093 47.182 36.756 49.507 38.417 50.504ZM21.327 50.504H1.889L3.384 48.344L0.809998 40.288C4.88 43.445 13.935 45.272 14.6 35.968C14.932 32.729 13.27 29.905 10.114 27.247C5.627 23.425 -1.101 18.773 0.476998 9.386C1.142 5.316 2.969 3.987 4.713 2.16L3.053 0H20.994L19.416 2.16L21.41 10.134C18.253 6.396 9.365 4.236 8.867 11.214C8.617 14.038 10.113 15.616 12.189 17.278C17.589 21.514 24.151 26.249 23.569 36.051C23.403 40.786 20.994 43.444 19.582 46.434C18.502 48.344 19.582 50.504 21.327 50.504Z" fill="black"/>
</svg>
