<svg xmlns="http://www.w3.org/2000/svg" fill="#cbd5e1" viewBox="0 0 101 100" width="100%" inspect-css-selected="true"><path fill="currentColor" d="M32.303 36.634a6.44 6.44 0 1 0 0-12.88 6.44 6.44 0 0 0 0 12.88ZM37.186 40.926h-9.772a.48.48 0 0 0-.48.48v31.237c0 .265.215.48.48.48h9.772a.48.48 0 0 0 .48-.48V41.407a.48.48 0 0 0-.48-.481ZM74.162 52.732v18.245c0 1.18-.966 2.147-2.146 2.147h-6.44a2.153 2.153 0 0 1-2.147-2.147V55.95a5.367 5.367 0 0 0-5.365-5.365 5.367 5.367 0 0 0-5.366 5.365v15.027c0 1.18-.966 2.147-2.147 2.147h-6.44a2.153 2.153 0 0 1-2.146-2.147V43.07c0-1.18.966-2.146 2.146-2.146h6.44c1.18 0 2.147.966 2.147 2.146v1.374c2.147-2.78 5.7-4.592 9.659-4.592 5.924 0 11.805 4.293 11.805 12.88Z"></path></svg>